<svg id="Layer_2" data-name="Layer 2"
    xmlns="http://www.w3.org/2000/svg" viewBox="0 0 324.75 384">
    <defs>
        <style>.cls-1{fill:#fff;}.cls-2{fill:#3fd3ff;}</style>
    </defs>
    <path class="cls-1" d="M88.93,41.53h46.64s-23.83,34.38,17.36,68.09v88.51h-64S141.7,126.3,88.93,41.53Z"/>
    <path class="cls-2" d="M150.89,83.4S127.06,64,142,35.06c0,0,13.27-21.44,42.21-13.27,0,0-22.81,1-32.68,19.74C151.57,41.53,139.65,63,150.89,83.4Z"/>
    <path class="cls-1" d="M235.82,198.13H189.18S213,163.74,171.82,130V41.53h64S183.05,113.36,235.82,198.13Z"/>
    <path class="cls-2" d="M173.86,156.26s23.83,19.4,8.85,48.34c0,0-13.27,21.44-42.21,13.27,0,0,22.81-1,32.68-19.74C173.18,198.13,185.1,176.68,173.86,156.26Z"/>
</svg>