<svg id="Layer_2" data-name="Layer 2"
  xmlns="http://www.w3.org/2000/svg" viewBox="0 0 324.75 384">
  <defs>
    <style>.cls-1{fill:#fff;}.cls-2{fill:#3fd3ff;}</style>
  </defs>
  <path class="cls-1" d="M63.33,270l-.68-.39v-.39c0-.54-.39-1.07-1.37-1.71a17.57,17.57,0,0,0-9.94-3c-4.63,0-7.6,1.61-7.6,4.14a2.44,2.44,0,0,0,1.46,2.2c1,.53,1.41.58,5.65,1l3.75.39c4.39.44,6.92,1.22,9,2.68a8.81,8.81,0,0,1,3.51,7.17,9.47,9.47,0,0,1-4.29,7.94A21.44,21.44,0,0,1,52,292.7a28,28,0,0,1-12.72-3.12c-1.36-.63-1.36-.63-1.61-.63s-.43.14-1,.53l-.68-.34,3.51-8,.73.34a1,1,0,0,0,0,.29,2.69,2.69,0,0,0,1,2c2,1.85,7.07,3.41,10.92,3.41,4.77,0,8.14-1.95,8.14-4.72a2.52,2.52,0,0,0-1.76-2.34c-1-.39-1.7-.54-4.87-.88L50,278.86c-4.92-.49-6.28-.78-8.28-1.8a8.25,8.25,0,0,1-4.53-7.65c0-6.44,5.36-10.39,14-10.39,4.15,0,7.27.73,12.53,3,1.31.48,1.41.53,1.66.53A1.94,1.94,0,0,0,66.5,262l.68.34Z"/>
  <path class="cls-1" d="M99.89,289.63c.09,1.07.39,1.41,1.51,1.71v.78H91.31v-.78c1.12-.3,1.41-.64,1.51-1.71V265H82.73c-1.07.1-1.41.39-1.7,1.51h-.78V258.1H81c.29,1.12.63,1.41,1.7,1.51H110c1.08-.1,1.42-.39,1.71-1.51h.78v8.38h-.78c-.29-1.12-.63-1.41-1.71-1.51H99.89Z"/>
  <path class="cls-1" d="M160.86,260.39c-1.12.29-1.41.63-1.51,1.7v18.23c0,5-1.32,8.09-4.24,9.85s-6.68,2.53-11.84,2.53-9.12-.83-11.85-2.53c-2.92-1.76-4.24-4.83-4.24-9.85V262.09c-.09-1.07-.39-1.41-1.51-1.7v-.78h10.14v.78c-1.17.29-1.46.63-1.56,1.7v16.23c0,3.76.34,5.22,1.46,6.44,1.47,1.56,4.29,2.43,7.85,2.43s6.34-.87,7.8-2.43c1.12-1.22,1.46-2.68,1.46-6.44V262.09c-.1-1.07-.39-1.41-1.51-1.7v-.78h9.55Z"/>
  <path class="cls-1" d="M193.91,259.61c6.05,0,9.55,1,12.48,3.46,3.41,2.87,5.16,7.26,5.16,12.77s-1.75,9.94-5.16,12.82c-2.88,2.48-6.48,3.46-12.48,3.46H175.83v-.78c1.12-.3,1.41-.64,1.51-1.71V262.09c-.1-1.07-.39-1.41-1.51-1.7v-.78Zm-.58,27.14c4.29,0,6.67-.82,8.48-2.87,1.7-1.9,2.48-4.39,2.48-8s-.78-6.09-2.48-8c-1.81-2.1-4.19-2.88-8.48-2.88h-8.92v21.78Z"/>
  <path class="cls-1" d="M236.51,292.12H226.43v-.78c1.12-.3,1.41-.64,1.51-1.71V262.09c-.1-1.07-.39-1.41-1.51-1.7v-.78h10.08v.78c-1.12.29-1.41.63-1.51,1.7v27.54c.05,1.07.39,1.41,1.51,1.71Z"/>
  <path class="cls-1" d="M283.5,263.61a16.84,16.84,0,0,1,0,24.46c-3.36,3.17-7.65,4.63-13.4,4.63s-10-1.46-13.4-4.63a16.46,16.46,0,0,1-5.27-12.23,16.64,16.64,0,0,1,5.27-12.23c3.46-3.12,7.7-4.59,13.35-4.59C275.9,259,280.09,260.44,283.5,263.61Zm-24.81,12.23c0,6.63,4.73,11.35,11.41,11.35s11.4-4.72,11.4-11.16c0-6.82-4.68-11.5-11.45-11.5A10.92,10.92,0,0,0,258.69,275.84Z"/>
  <path class="cls-1" d="M36.77,345v11.7c0,1.07.39,1.41,1.51,1.7v.78H28.19v-.78c1.12-.29,1.41-.63,1.51-1.7V329.18c-.1-1.07-.39-1.41-1.51-1.71v-.77H38.28v.77c-1.12.3-1.42.64-1.51,1.71v10.48H55.58V329.18c-.1-1.07-.39-1.41-1.51-1.71v-.77H64.16v.77c-1.13.3-1.47.64-1.52,1.71v27.54c0,1.07.39,1.41,1.52,1.7v.78H54.07v-.78c1.12-.29,1.41-.63,1.51-1.7V345Z"/>
  <path class="cls-1" d="M88.34,353.84h21c1-.1,1.42-.39,1.71-1.51h.73v8.38H111c-.29-1.12-.64-1.41-1.71-1.51H79.76v-.78c1.12-.29,1.41-.63,1.51-1.7V329.18c-.1-1.07-.39-1.41-1.51-1.71v-.77h28.95c1.07-.1,1.41-.4,1.7-1.52h.78v8.39h-.78c-.29-1.12-.63-1.42-1.7-1.51H88.34v7.74h13.2c1.08,0,1.42-.38,1.71-1.55H104v8.23h-.78c-.29-1.12-.63-1.41-1.71-1.51H88.34Z"/>
  <path class="cls-1" d="M136.59,350.92l-2.19,4.58A4.71,4.71,0,0,0,134,357c0,.68.54,1.17,1.56,1.41v.78H124.8v-.78c1.22-.19,1.61-.58,2.58-2.48l11.94-25a4.52,4.52,0,0,0,.59-1.9c0-.73-.44-1.26-1.37-1.56v-.77H150v.77c-.83.25-1.41.74-1.41,1.27a6.32,6.32,0,0,0,.83,2.44l12,24.32c1.16,2.24,1.65,2.73,2.92,2.92v.78H152.48v-.78c1-.14,1.56-.63,1.56-1.46a3.67,3.67,0,0,0-.44-1.46l-2.24-4.58Zm7.46-16-5.36,11.6h10.62Z"/>
  <path class="cls-1" d="M205.56,353.84c1,0,1.41-.39,1.71-1.51h.78v8.38h-.78c-.3-1.12-.64-1.41-1.71-1.51H177v-.78c1.12-.29,1.41-.63,1.51-1.7V329.18c-.1-1.07-.39-1.41-1.51-1.71v-.77H187v.77c-1.12.3-1.41.64-1.51,1.71v24.66Z"/>
  <path class="cls-1" d="M234.52,356.72c.09,1.07.39,1.41,1.51,1.7v.78H225.94v-.78c1.12-.29,1.41-.63,1.51-1.7V332.06H217.36c-1.07.09-1.41.39-1.71,1.51h-.78v-8.39h.78c.3,1.12.64,1.42,1.71,1.52H244.6c1.08-.1,1.42-.4,1.71-1.52h.78v8.39h-.78c-.29-1.12-.63-1.42-1.71-1.51H234.52Z"/>
  <path class="cls-1" d="M269.17,345v11.7c.05,1.07.39,1.41,1.51,1.7v.78H260.59v-.78c1.13-.29,1.42-.63,1.51-1.7V329.18c-.09-1.07-.38-1.41-1.51-1.71v-.77h10.09v.77c-1.12.3-1.41.64-1.51,1.71v10.48H288V329.18c-.09-1.07-.39-1.41-1.51-1.71v-.77h10.09v.77c-1.12.3-1.46.64-1.51,1.71v27.54c.05,1.07.39,1.41,1.51,1.7v.78H286.47v-.78c1.12-.29,1.42-.63,1.51-1.7V345Z"/>
  <path class="cls-2" d="M15.21,313.2v-8.59H18a9.77,9.77,0,0,1,2.06.13,2.25,2.25,0,0,1,1.23.84,2.61,2.61,0,0,1,.5,1.67,2.82,2.82,0,0,1-.28,1.33,2.55,2.55,0,0,1-.73.85,2.77,2.77,0,0,1-.9.41,10.25,10.25,0,0,1-1.8.12H17v3.24ZM17,306.06v2.44h.95a4.53,4.53,0,0,0,1.37-.13,1.16,1.16,0,0,0,.54-.43,1.21,1.21,0,0,0-.08-1.44,1.21,1.21,0,0,0-.7-.38,8,8,0,0,0-1.24-.06Z"/>
  <path class="cls-2" d="M30.43,313.2H28.55l-.75-1.95H24.36l-.71,1.95H21.81l3.35-8.59H27Zm-3.19-3.4-1.18-3.19L24.9,309.8Z"/>
  <path class="cls-2" d="M31.66,313.2v-8.59h1.73v8.59Z"/>
  <path class="cls-2" d="M35.42,313.2v-8.59h1.69l3.52,5.74v-5.74h1.61v8.59H40.5L37,307.6v5.6Z"/>
  <path class="cls-2" d="M50.06,313.2v-7.14H47.51v-1.45h6.83v1.45H51.79v7.14Z"/>
  <path class="cls-2" d="M55.82,313.2v-8.59h1.74V308H61v-3.38h1.73v8.59H61v-3.76h-3.4v3.76Z"/>
  <path class="cls-2" d="M64.84,313.2v-8.59h6.37v1.45H66.58V308h4.31v1.44H66.58v2.34h4.8v1.45Z"/>
  <path class="cls-2" d="M73.21,313.2v-8.59h3.65a6.34,6.34,0,0,1,2,.23,2,2,0,0,1,1,.82,2.51,2.51,0,0,1,.38,1.36,2.28,2.28,0,0,1-.57,1.59,2.75,2.75,0,0,1-1.7.8,4.4,4.4,0,0,1,.93.72,11,11,0,0,1,1,1.39l1,1.68H78.86l-1.25-1.87a10.94,10.94,0,0,0-.92-1.26,1.23,1.23,0,0,0-.52-.36,2.93,2.93,0,0,0-.87-.1H75v3.59Zm1.74-5h1.28a6.82,6.82,0,0,0,1.56-.1.85.85,0,0,0,.48-.37,1.08,1.08,0,0,0,.18-.64,1.05,1.05,0,0,0-.23-.7,1.08,1.08,0,0,0-.65-.34c-.15,0-.57,0-1.27,0H75Z"/>
  <path class="cls-2" d="M90,313.2H88.09l-.75-1.95H83.91l-.71,1.95H81.36l3.35-8.59h1.83Zm-3.19-3.4-1.19-3.19-1.16,3.19Z"/>
  <path class="cls-2" d="M91.26,313.2v-8.59H94a9.7,9.7,0,0,1,2.06.13,2.24,2.24,0,0,1,1.24.84,2.67,2.67,0,0,1,.5,1.67,2.81,2.81,0,0,1-.29,1.33,2.34,2.34,0,0,1-.73.85,2.6,2.6,0,0,1-.9.41,10.09,10.09,0,0,1-1.8.12H93v3.24ZM93,306.06v2.44h1a4.49,4.49,0,0,0,1.37-.13,1.16,1.16,0,0,0,.54-.43,1.08,1.08,0,0,0,.2-.66,1.14,1.14,0,0,0-.27-.78,1.24,1.24,0,0,0-.7-.38,8.16,8.16,0,0,0-1.25-.06Z"/>
  <path class="cls-2" d="M99.57,313.2v-8.59h1.73v8.59Z"/>
  <path class="cls-2" d="M103.32,313.2v-8.59h6.37v1.45h-4.64V308h4.31v1.44h-4.31v2.34h4.8v1.45Z"/>
  <path class="cls-2" d="M111.24,310.4l1.69-.16a2.06,2.06,0,0,0,.62,1.25,1.89,1.89,0,0,0,1.25.4,1.94,1.94,0,0,0,1.27-.36,1,1,0,0,0,.42-.83.8.8,0,0,0-.18-.52,1.53,1.53,0,0,0-.62-.37c-.21-.07-.67-.19-1.39-.37a4.83,4.83,0,0,1-2-.85,2.22,2.22,0,0,1-.79-1.73,2.27,2.27,0,0,1,.37-1.23,2.35,2.35,0,0,1,1.08-.87,4.26,4.26,0,0,1,1.69-.3,3.63,3.63,0,0,1,2.43.71,2.5,2.5,0,0,1,.86,1.89l-1.74.08a1.46,1.46,0,0,0-.47-.95,1.78,1.78,0,0,0-1.1-.29,2,2,0,0,0-1.19.31.62.62,0,0,0-.27.53.65.65,0,0,0,.26.52,4.43,4.43,0,0,0,1.59.58,8,8,0,0,1,1.87.62,2.35,2.35,0,0,1,.95.87,2.53,2.53,0,0,1,.35,1.37,2.48,2.48,0,0,1-.42,1.38,2.45,2.45,0,0,1-1.16,1,4.82,4.82,0,0,1-1.86.31,3.76,3.76,0,0,1-2.51-.75A3.26,3.26,0,0,1,111.24,310.4Z"/>
  <path class="cls-2" d="M131.34,312.15l-1,1.27a5.56,5.56,0,0,1-1.4-1,3.65,3.65,0,0,1-1.11.69,3.92,3.92,0,0,1-1.4.22,3.07,3.07,0,0,1-2.41-.9,2.34,2.34,0,0,1-.63-1.61,2.46,2.46,0,0,1,.49-1.48,4.12,4.12,0,0,1,1.47-1.15,4.73,4.73,0,0,1-.66-1,2,2,0,0,1-.22-.89,1.73,1.73,0,0,1,.62-1.33,2.65,2.65,0,0,1,1.78-.54,2.5,2.5,0,0,1,1.74.57,1.8,1.8,0,0,1,.63,1.39,1.73,1.73,0,0,1-.31,1,4.3,4.3,0,0,1-1.25,1.06l1.19,1.58a4.05,4.05,0,0,0,.36-1l1.49.34a12.16,12.16,0,0,1-.38,1.16,3.17,3.17,0,0,1-.36.61,6.29,6.29,0,0,0,.72.56A5,5,0,0,0,131.34,312.15Zm-5.13-2.88a2.22,2.22,0,0,0-.85.69,1.41,1.41,0,0,0-.28.83,1.18,1.18,0,0,0,.35.87,1.29,1.29,0,0,0,.93.33,1.93,1.93,0,0,0,.75-.15,3.46,3.46,0,0,0,.78-.5Zm.64-1.79.45-.34a1,1,0,0,0,.49-.76.7.7,0,0,0-.23-.53.92.92,0,0,0-.65-.23.9.9,0,0,0-.61.2.58.58,0,0,0-.22.45,1.22,1.22,0,0,0,.37.74Z"/>
  <path class="cls-2" d="M136.46,313.2v-8.59h2.78a9.7,9.7,0,0,1,2.06.13,2.24,2.24,0,0,1,1.24.84,2.67,2.67,0,0,1,.5,1.67,2.81,2.81,0,0,1-.29,1.33,2.34,2.34,0,0,1-.73.85,2.6,2.6,0,0,1-.9.41,10.09,10.09,0,0,1-1.8.12h-1.13v3.24Zm1.73-7.14v2.44h.95a4.49,4.49,0,0,0,1.37-.13,1.16,1.16,0,0,0,.54-.43,1.08,1.08,0,0,0,.2-.66,1.14,1.14,0,0,0-.27-.78,1.24,1.24,0,0,0-.7-.38,8.16,8.16,0,0,0-1.25-.06Z"/>
  <path class="cls-2" d="M144.82,313.2v-8.59h6.37v1.45h-4.63V308h4.31v1.44h-4.31v2.34h4.79v1.45Z"/>
  <path class="cls-2" d="M153.19,313.2v-8.59h3.65a6.34,6.34,0,0,1,2,.23,2,2,0,0,1,1,.82,2.51,2.51,0,0,1,.38,1.36,2.28,2.28,0,0,1-.57,1.59,2.75,2.75,0,0,1-1.7.8,4.4,4.4,0,0,1,.93.72,11,11,0,0,1,1,1.39l1,1.68h-2.07l-1.25-1.87a10.94,10.94,0,0,0-.92-1.26,1.23,1.23,0,0,0-.52-.36,2.93,2.93,0,0,0-.87-.1h-.35v3.59Zm1.74-5h1.28a6.82,6.82,0,0,0,1.56-.1.89.89,0,0,0,.48-.37,1.08,1.08,0,0,0,.18-.64,1.05,1.05,0,0,0-.23-.7,1.08,1.08,0,0,0-.66-.34q-.21,0-1.26,0h-1.35Z"/>
  <path class="cls-2" d="M162.22,313.2v-8.59h5.89v1.45H164v2h3.58v1.45H164v3.65Z"/>
  <path class="cls-2" d="M169.55,309a5.53,5.53,0,0,1,.39-2.21,4.06,4.06,0,0,1,.8-1.17,3.41,3.41,0,0,1,1.11-.78,4.9,4.9,0,0,1,1.86-.34,4,4,0,0,1,3,1.18,4.53,4.53,0,0,1,1.14,3.28,4.47,4.47,0,0,1-1.13,3.25,4,4,0,0,1-3,1.18,4.05,4.05,0,0,1-3-1.17A4.47,4.47,0,0,1,169.55,309Zm1.79-.06a3.21,3.21,0,0,0,.67,2.21,2.32,2.32,0,0,0,3.41,0,4.08,4.08,0,0,0,0-4.45,2.19,2.19,0,0,0-1.72-.72,2.22,2.22,0,0,0-1.73.73A3.29,3.29,0,0,0,171.34,308.9Z"/>
  <path class="cls-2" d="M179.6,313.2v-8.59h3.65a6.34,6.34,0,0,1,2,.23,2,2,0,0,1,1,.82,2.51,2.51,0,0,1,.38,1.36,2.28,2.28,0,0,1-.57,1.59,2.75,2.75,0,0,1-1.7.8,4.4,4.4,0,0,1,.93.72,11,11,0,0,1,1,1.39l1,1.68h-2.07L184,311.33a10.94,10.94,0,0,0-.92-1.26,1.23,1.23,0,0,0-.52-.36,2.93,2.93,0,0,0-.87-.1h-.35v3.59Zm1.74-5h1.28a6.82,6.82,0,0,0,1.56-.1.89.89,0,0,0,.48-.37,1.08,1.08,0,0,0,.18-.64,1.05,1.05,0,0,0-.23-.7,1.08,1.08,0,0,0-.65-.34c-.15,0-.57,0-1.27,0h-1.35Z"/>
  <path class="cls-2" d="M188.6,313.2v-8.59h2.59l1.56,5.86,1.54-5.86h2.61v8.59h-1.62v-6.76l-1.7,6.76h-1.67l-1.7-6.76v6.76Z"/>
  <path class="cls-2" d="M206.72,313.2h-1.88l-.75-1.95h-3.44l-.71,1.95H198.1l3.35-8.59h1.83Zm-3.19-3.4-1.18-3.19-1.16,3.19Z"/>
  <path class="cls-2" d="M208,313.2v-8.59h1.69l3.51,5.74v-5.74h1.62v8.59H213.1l-3.47-5.6v5.6Z"/>
  <path class="cls-2" d="M222.53,310l1.68.53a3.76,3.76,0,0,1-1.29,2.09,3.64,3.64,0,0,1-2.28.69,3.68,3.68,0,0,1-2.81-1.17,4.46,4.46,0,0,1-1.1-3.2,4.68,4.68,0,0,1,1.1-3.33,3.81,3.81,0,0,1,2.92-1.19,3.58,3.58,0,0,1,2.56.93,3.37,3.37,0,0,1,.87,1.59l-1.71.41a1.84,1.84,0,0,0-.64-1.06,1.79,1.79,0,0,0-1.17-.38,1.93,1.93,0,0,0-1.55.68,3.35,3.35,0,0,0-.6,2.22,3.59,3.59,0,0,0,.59,2.32,1.9,1.9,0,0,0,1.52.69,1.7,1.7,0,0,0,1.19-.44A2.58,2.58,0,0,0,222.53,310Z"/>
  <path class="cls-2" d="M226.06,313.2v-8.59h6.36v1.45h-4.63V308h4.31v1.44h-4.31v2.34h4.8v1.45Z"/>
  <path class="cls-2" d="M237.67,310.4l1.69-.16a2.06,2.06,0,0,0,.62,1.25,2.28,2.28,0,0,0,2.52,0,1,1,0,0,0,.42-.83.79.79,0,0,0-.17-.52,1.51,1.51,0,0,0-.63-.37c-.2-.07-.66-.19-1.39-.37a4.71,4.71,0,0,1-1.95-.85,2.22,2.22,0,0,1-.79-1.73,2.19,2.19,0,0,1,.37-1.23,2.33,2.33,0,0,1,1.07-.87,4.29,4.29,0,0,1,1.69-.3,3.61,3.61,0,0,1,2.43.71,2.47,2.47,0,0,1,.86,1.89l-1.73.08a1.46,1.46,0,0,0-.48-.95,1.76,1.76,0,0,0-1.1-.29,2,2,0,0,0-1.18.31.63.63,0,0,0-.28.53.65.65,0,0,0,.26.52,4.42,4.42,0,0,0,1.6.58,8.22,8.22,0,0,1,1.87.62,2.42,2.42,0,0,1,.95.87,2.62,2.62,0,0,1,.34,1.37,2.56,2.56,0,0,1-.41,1.38,2.45,2.45,0,0,1-1.16,1,4.84,4.84,0,0,1-1.87.31,3.71,3.71,0,0,1-2.5-.75A3.31,3.31,0,0,1,237.67,310.4Z"/>
  <path class="cls-2" d="M246.13,309a5.53,5.53,0,0,1,.39-2.21,3.87,3.87,0,0,1,.8-1.17,3.41,3.41,0,0,1,1.11-.78,4.81,4.81,0,0,1,1.85-.34,4.05,4.05,0,0,1,3,1.18,5.26,5.26,0,0,1,0,6.53,4.51,4.51,0,0,1-6.07,0A4.42,4.42,0,0,1,246.13,309Zm1.78-.06a3.21,3.21,0,0,0,.68,2.21,2.32,2.32,0,0,0,3.41,0,3.31,3.31,0,0,0,.67-2.24,3.26,3.26,0,0,0-.65-2.21,2.41,2.41,0,0,0-3.45,0A3.24,3.24,0,0,0,247.91,308.9Z"/>
  <path class="cls-2" d="M256.22,313.2v-8.52H258v7.07h4.32v1.45Z"/>
  <path class="cls-2" d="M263.85,304.61h1.73v4.65a9.87,9.87,0,0,0,.07,1.44,1.35,1.35,0,0,0,.53.84,1.8,1.8,0,0,0,1.14.32,1.76,1.76,0,0,0,1.12-.3,1.19,1.19,0,0,0,.45-.74,10,10,0,0,0,.07-1.46v-4.75h1.74v4.51a12,12,0,0,1-.14,2.19,2.39,2.39,0,0,1-1.53,1.77,4.24,4.24,0,0,1-1.65.27,4.74,4.74,0,0,1-1.87-.29,2.57,2.57,0,0,1-1-.74,2.34,2.34,0,0,1-.49-.95,10.66,10.66,0,0,1-.17-2.18Z"/>
  <path class="cls-2" d="M274.82,313.2v-7.14h-2.55v-1.45h6.83v1.45h-2.54v7.14Z"/>
  <path class="cls-2" d="M280.53,313.2v-8.59h1.73v8.59Z"/>
  <path class="cls-2" d="M283.92,309a5.53,5.53,0,0,1,.39-2.21,4.06,4.06,0,0,1,.8-1.17,3.41,3.41,0,0,1,1.11-.78,4.84,4.84,0,0,1,1.85-.34,4.05,4.05,0,0,1,3,1.18,5.26,5.26,0,0,1,0,6.53,4.51,4.51,0,0,1-6.07,0A4.47,4.47,0,0,1,283.92,309Zm1.79-.06a3.21,3.21,0,0,0,.67,2.21,2.32,2.32,0,0,0,3.41,0,4.08,4.08,0,0,0,0-4.45,2.19,2.19,0,0,0-1.72-.72,2.22,2.22,0,0,0-1.73.73A3.29,3.29,0,0,0,285.71,308.9Z"/>
  <path class="cls-2" d="M294,313.2v-8.59h1.69l3.52,5.74v-5.74h1.61v8.59h-1.74l-3.47-5.6v5.6Z"/>
  <path class="cls-2" d="M302.55,310.4l1.69-.16a2.06,2.06,0,0,0,.62,1.25,1.9,1.9,0,0,0,1.26.4,1.93,1.93,0,0,0,1.26-.36,1,1,0,0,0,.42-.83.8.8,0,0,0-.18-.52,1.46,1.46,0,0,0-.62-.37c-.2-.07-.67-.19-1.39-.37a4.83,4.83,0,0,1-2-.85,2.26,2.26,0,0,1-.79-1.73,2.2,2.2,0,0,1,.38-1.23,2.28,2.28,0,0,1,1.07-.87,4.26,4.26,0,0,1,1.69-.3,3.61,3.61,0,0,1,2.43.71,2.5,2.5,0,0,1,.86,1.89l-1.73.08a1.51,1.51,0,0,0-.48-.95,1.78,1.78,0,0,0-1.1-.29,2,2,0,0,0-1.18.31.61.61,0,0,0-.28.53.65.65,0,0,0,.26.52,4.43,4.43,0,0,0,1.59.58,8.16,8.16,0,0,1,1.88.62,2.33,2.33,0,0,1,.94.87,2.68,2.68,0,0,1-.06,2.75,2.5,2.5,0,0,1-1.16,1,4.88,4.88,0,0,1-1.87.31,3.71,3.71,0,0,1-2.5-.75A3.27,3.27,0,0,1,302.55,310.4Z"/>
  <path class="cls-1" d="M88.93,41.53h46.64s-23.83,34.38,17.36,68.09v88.51h-64S141.7,126.3,88.93,41.53Z"/>
  <path class="cls-2" d="M150.89,83.4S127.06,64,142,35.06c0,0,13.27-21.44,42.21-13.27,0,0-22.81,1-32.68,19.74C151.57,41.53,139.65,63,150.89,83.4Z"/>
  <path class="cls-1" d="M235.82,198.13H189.18S213,163.74,171.82,130V41.53h64S183.05,113.36,235.82,198.13Z"/>
  <path class="cls-2" d="M173.86,156.26s23.83,19.4,8.85,48.34c0,0-13.27,21.44-42.21,13.27,0,0,22.81-1,32.68-19.74C173.18,198.13,185.1,176.68,173.86,156.26Z"/>
</svg>